<?xml version="1.0" encoding="UTF-8"?>
<svg id="_레이어_1" data-name="레이어 1" xmlns="http://www.w3.org/2000/svg" viewBox="0 0 1920 1920">
  <defs>
    <style>
      .cls-1 {
        fill: none;
      }

      .cls-2 {
        fill: #7cc6ef;
      }

      .cls-3 {
        stroke: #fff;
        stroke-miterlimit: 10;
        stroke-width: 40px;
      }

      .cls-3, .cls-4 {
        fill: #f6efe7;
      }

      .cls-5 {
        fill: #f36260;
      }

      .cls-6 {
        fill: #f4ede4;
      }

      .cls-7 {
        fill: #fff;
      }

      .cls-8 {
        fill: #face55;
      }
    </style>
  </defs>
  <rect class="cls-1" width="1920" height="1920"/>
  <path class="cls-3" d="M1483.78,605.05c-.69.5-1,11.3-6.22,15.97-15.7,14.03-66.93,51.29-73.81,67.36-13.86,32.36,24.91,99.55-22.31,112.53-49.66,13.65-54.15-69.29-80.16-93.57-28.3-26.43-95.3-24.57-93.43-67.28,2.55-58.02,83.22-15.86,115.74-31.78,15-7.35,63.76-84.08,83.21-99.22l-205.25-131.13c-31.67-26.92-1.96-77.47,34.86-73.95l269.5,83.37c52.45-28.59,200.57-207.62,255.86-114.91,48.22,80.85-111.32,168.36-149.06,228.2,8.74,75.46,65.88,185.24,68.07,256.74,1.31,42.87-43.46,51.67-72.41,27.18l-109.07-172.76c-2.26-6.06-11.71-9.52-15.53-6.74Z"/>
  <path class="cls-7" d="M514.1,235.1c1.09,0,2.18,0,3.27,0,117.78-.4,263.81-10.04,378.16-.12,188.95,16.39,135.28,274.97,142.33,401,17.93,26.39,36.96,52.08,48.96,82.02,29.58-15.76,55.32-37.63,86.24-51.43,157.66-70.35,321.42,22.33,332.75,195.36,3.33,50.93-7.9,91.44-22.89,139.05,23.07,2.14,54.86,15.99,58.73,41.14,2.06,13.36-3.56,70.52,3.27,75.28,6.78,4.72,51.46-.38,64.22,1.2,1.6.2,24.2,11.72,26.89,13.01,33.31,15.97,50.89,43.59,56.51,80.39l-.11,335.61c-1.75-.16-13.29,26.5-16.29,31.17-10.02,15.63-23.01,27.17-39.23,36.05-4.84,2.65-21.94,7.49-22.62,8.48-.94,1.39-.7,17.3-2.98,24.85-12.15,40.36-64.63,54.52-95.33,25.14-6.49-6.21-8.75-15.33-13.41-20.96l-3.3-22.89-199.65-.04c4.51,53.6-51.17,79.28-88.36,39.3-.14-1.1.22-2.29,0-3.27-.56-2.45-5.39-6.06-6.39-11.53-1.52-8.31,2.34-21.09-1.75-27.78-1.89-3.1-29.58-16.2-34.41-16.33-1.08-.03-2.53-.25-3.27,0-11.78-20.52-39.28-48.38-39.28-73.65v-227.48l-86.78,49.06c-3.74,56.65,5.12,112.22-24.51,163.7-1.28,2.22-2.34,5.15-3.27,6.55-16.52,24.75-45.53,37.63-58.92,55.64-2.07.32-4.76-.48-6.55,0-7.02,1.87-16.98,5.51-22.91,9.82-2.18.03-4.37-.08-6.55,0-216.59,7.47-437.83,5.87-653.91-2.35-5.73-.48-12.51-6.66-17.08-7.47-1.02-.18-2.21.03-3.27,0-50.33-27.68-84.16-75.04-91.59-132.61,2.62-363.94-5.54-728.92,4.13-1092.26,16.76-59.27,61.81-112.07,124.74-117.21,2.45-.2.5-5.9,6.68-6.72,61.12-8.2,161.79.51,227.72.28ZM985.43,1454.34c2.89-21.42-2.12-48.28,0-70.37-14.53,3.28-28.22,12.48-42.41,1.48-21.82-23.85-45.42-46.44-67.28-70.18-13.28-14.42-25.81-28.26-39.36-42.47-5.61-5.88-17.76-27.55-22.83-29.56-5.21-2.06-8.61,8.8-10.37,12.42-6.99,14.45-5.58,30.28-22.42,36.54-10.06,3.74-39.88,6.1-52.13,6.79-157.54,8.76-300.02-50.76-451.98-81.81-26.14-10.37-18.13-16.93-21.2-40.87l69.08-406.09c-12.3-31.59-41.28-54.84-54.21-86.77-56.9-140.5,99.73-265.37,219.24-176.69,56.44,41.88,72.21,114.92,45.75,179.97-3.83,9.41-9,17.9-14.67,26.22,7.97-3.22,10.17,5.95,12.18,6.45,10.47,2.59,28.83,2.18,40.96,4.28,13.18,2.28,26.41,7.3,39.79,9.17,8.53-18.07,14.62-37.17,24.36-54.8,25.5-46.18,75.01-89.48,124.13-108.26,74.66-28.55,156.72-23.14,223.38,22.09v-214.39c0-14.26-21.53-51.16-33.09-61.83-16.96-15.65-47.34-31.69-70.36-34.37l-566.02-.47c-73.06,8.37-111.71,53.83-116.24,125.97l.04,1028.04c4.75,59.94,43.28,104.39,103.25,112.77l582.53-.02c48.12-3.36,93.46-45.61,99.89-93.23ZM406.03,791.54c35.84-65.78,120.31-114.71,90.98-200.57-45.23-132.38-243.72-47.58-183.17,78.43,11.06,23.01,64.19,93.09,82.54,113.85,1.75,1.98,7.99,9.45,9.66,8.29ZM1286.56,1112.3v-67.1c0-7.05,12.13-22.76,17.92-27.91,33.92-30.18,81.09-16.13,122.31-20.09,57.64-100.58,34.75-250.94-83.79-293.2-101.45-36.17-186.17,22.05-258.2,87.11-29.89,12.09-30.55-21.79-37.96-39.71-47.28-114.38-146.74-185.43-272.05-132.88-120.28,50.43-141.52,186.47-108.47,300.66,48.69,168.23,185.07,292.81,298.36,418.69,5.34,1.6,59.13-26.71,68.79-31.9,12.45-6.69,87.25-49.89,91.07-56.22,4.39-7.29.25-46.48,6.66-65.35,22.17-65.28,94.61-78.48,155.38-72.1ZM602.05,782.15l-114.3-24.81c-17.81,12.89-64.04,94.15-80.21,96.47-24.28,3.49-38.61-40.09-43.97-36.09l-26.19,166.92c49.36-23.4,100.83-58.39,158.37-52.01,25.41,2.82,55.17,21.12,76.99,34.28,6.04,3.64,20.82,17.53,22.22,17.78,11.28,2.03,28.25-6.74,40.24-6.63-30.08-60.82-35.06-128.86-33.15-195.92ZM569.48,1024.38c-30.2-17.71-61.68-45.86-99.5-43.11-21.99,1.6-117.51,48.35-137.02,62.81-3.24,2.4-7.01,3.84-7.96,8.4l-20.23,121.9,228.96,52.49,35.75-202.5ZM657.6,1027.73c-3.92-2.45-39.37.26-41.66,3.1l-36.39,215.68,174.61-.53c6.89-2.13,18.86-42.67,16.9-48.4-3.29-9.62-41.86-52.83-51.48-66.56-15.7-22.42-31.07-45.93-45.14-69.42-3.37-5.62-15.24-32.87-16.84-33.88ZM1397.85,1043.57h-47.46c-5.8,0-16.56,7.83-17.93,14.8-1,5.07-1.31,48.37-.28,51.91.64,2.19,10.2,4.49,11.85,4.23,4.4-.7,45.62-63.01,53.81-70.95ZM1496.04,1115.57v-60.55c0-7.44-31.41-14.58-39.27-9.81-9.47,5.75-37.79,59.2-49.11,70.36h88.37ZM1226.86,1158.98c-26.93,3.87-52,25.19-54.87,53.14,7.26,99.63-9.7,212.94.04,310.93,3.75,37.69,22.76,56.68,60.39,60.71,94.8-5.8,197.76,7.28,291.56-.01,38.35-2.98,57.24-21.93,60.55-60.55,8.07-94.13-6.36-199.47,0-294.82-1.78-24.37-12.95-60.45-40.96-63.78-13.24-1.57-29.02,1-42.76.21-90.89-5.27-182.68-2.63-273.95-5.83ZM1624.94,1565.43c12.61-11.52,19.54-17.09,21.66-35.8,10.96-96.38-8.34-212.6.16-311.11-1.49-19.11-13.82-36.74-29.59-47.29,5.8,18.4,11.7,37.75,13.18,57.16,6.09,80,6.36,218.27,0,298.09-1.16,14.57-5.12,28.71-9.98,42.39,3.64,5.47,3.07-2.05,4.57-3.43Z"/>
  <path class="cls-2" d="M985.43,1454.34c-6.43,47.62-51.77,89.86-99.89,93.23l-582.53.02c-59.98-8.39-98.51-52.84-103.25-112.77l-.04-1028.04c4.53-72.15,43.18-117.6,116.24-125.97l566.02.47c23.02,2.68,53.4,18.72,70.36,34.37,11.57,10.67,33.09,47.57,33.09,61.83v214.39c-66.66-45.22-148.73-50.63-223.38-22.09-49.12,18.78-98.63,62.08-124.13,108.26-9.73,17.62-15.82,36.73-24.36,54.8-13.38-1.86-26.61-6.88-39.79-9.17-12.12-2.1-30.48-1.69-40.96-4.28-2.01-.5-4.21-9.67-12.18-6.45,5.68-8.32,10.84-16.8,14.67-26.22,26.46-65.05,10.69-138.09-45.75-179.97-119.51-88.68-276.14,36.19-219.24,176.69,12.93,31.94,41.91,55.18,54.21,86.77l-69.08,406.09c3.08,23.94-4.94,30.49,21.2,40.87,151.96,31.05,294.44,90.57,451.98,81.81,12.25-.68,42.07-3.04,52.13-6.79,16.85-6.27,15.43-22.1,22.42-36.54,1.75-3.62,5.16-14.48,10.37-12.42,5.07,2,17.23,23.68,22.83,29.56,13.55,14.21,26.08,28.04,39.36,42.47,21.86,23.74,45.46,46.33,67.28,70.18,14.19,11,27.88,1.8,42.41-1.48-2.12,22.09,2.89,48.95,0,70.37ZM472.22,337.27c-15.98,21.3-16.1,43.81,14.36,48.11,68.38-5.03,148.81,7.78,215.73.3,13.95-1.56,25.94-6.33,27.22-22.11.55-6.72-6.3-26.54-14.08-27.03l-243.23.74Z"/>
  <path class="cls-5" d="M1286.56,1112.3c-60.77-6.37-133.21,6.82-155.38,72.1-6.41,18.87-2.27,58.06-6.66,65.35-3.81,6.33-78.62,49.53-91.07,56.22-9.66,5.19-63.45,33.49-68.79,31.9-113.29-125.88-249.67-250.47-298.36-418.69-33.05-114.18-11.8-250.22,108.47-300.66,125.32-52.55,224.78,18.5,272.05,132.88,7.4,17.91,8.06,51.8,37.96,39.71,72.03-65.06,156.75-123.28,258.2-87.11,118.54,42.26,141.43,192.62,83.79,293.2-41.22,3.96-88.39-10.1-122.31,20.09-5.78,5.15-17.92,20.86-17.92,27.91v67.1ZM932.12,867.8c-30.59-24.57-68.3,31.36-38.26,52.94,36.19,25.99,62.12-33.78,38.26-52.94ZM1144.85,913.34c-25.2,7.48-23.39,56.92,6.11,61.34,47.76,7.15,42.99-75.92-6.11-61.34ZM920.74,1001.79c-2.56,2.57-6.23,15.62-6.24,19.89-.05,46.91,58.36,87.67,102.02,87.64,35.05-.03,98.25-24.86,82.92-70.13-8.83-26.09-45.21,11.93-57.1,17.1-25.62,11.15-46.08,7.13-66.76-11.06-15.49-13.62-13.67-22.7-22.87-36.05-6.96-10.1-22.33-17.1-31.97-7.39Z"/>
  <path class="cls-8" d="M1226.86,1158.98c91.28,3.2,183.07.56,273.95,5.83,13.74.8,29.52-1.78,42.76-.21,28.01,3.33,39.17,39.41,40.96,63.78-6.36,95.35,8.07,200.69,0,294.82-3.31,38.63-22.21,57.57-60.55,60.55-93.8,7.29-196.76-5.79-291.56.01-37.63-4.03-56.64-23.02-60.39-60.71-9.74-97.99,7.22-211.29-.04-310.93,2.87-27.96,27.93-49.27,54.87-53.14ZM1298.74,1527.07c3.61-3.58,6.95-14.88,7.55-20.28,8.6-77.31-6.73-169.99.06-248.98.76-18.8-30.49-20.84-39.7-9.93-3.39,4.02-5.65,17.43-6.23,23.23-5.26,53.26-5.93,179.75-.06,232.36,2.42,21.72,18.35,43.49,38.38,23.62ZM1487.46,1529.97c7.47,3.49,14.63,3.91,22.36.48,20.53-9.1,12.12-18.16,12.22-33.41.56-80.76.03-161.53.1-242.29-4.02-20.63-45.04-17.26-42.53,6.42l-.16,258.75c-.16,2.55,6.76,9.47,8,10.05ZM1410.16,1247.27c-14.29-14.25-39.32-2.93-41.76,20.51-5.47,52.43-5.88,183.66,0,235.65,4.43,39.25,42.25,34.68,45.89,3.35-5.13-78.49,6.58-164.92.06-242.42-.43-5.07-.57-13.48-4.18-17.09Z"/>
  <path class="cls-4" d="M569.48,1024.38l-35.75,202.5-228.96-52.49,20.23-121.9c.95-4.56,4.72-6,7.96-8.4,19.51-14.45,115.04-61.21,137.02-62.81,37.81-2.75,69.3,25.4,99.5,43.11Z"/>
  <path class="cls-4" d="M602.05,782.15c-1.91,67.06,3.07,135.1,33.15,195.92-12-.11-28.96,8.66-40.24,6.63-1.4-.25-16.18-14.14-22.22-17.78-21.81-13.15-51.58-31.46-76.99-34.28-57.53-6.38-109.01,28.61-158.37,52.01l26.19-166.92c5.36-4,19.69,39.58,43.97,36.09,16.17-2.33,62.4-83.59,80.21-96.47l114.3,24.81Z"/>
  <path class="cls-5" d="M406.03,791.54c-1.66,1.17-7.9-6.3-9.66-8.29-18.35-20.75-71.48-90.84-82.54-113.85-60.54-126.02,137.94-210.81,183.17-78.43,29.33,85.85-55.14,134.78-90.98,200.57ZM398.79,579.43c-51.89,7.19-45.43,91.16,11.91,84.18,56.24-6.85,39.75-91.34-11.91-84.18Z"/>
  <path class="cls-6" d="M657.6,1027.73c1.6,1,13.47,28.25,16.84,33.88,14.07,23.49,29.43,47,45.14,69.42,9.62,13.73,48.19,56.94,51.48,66.56,1.96,5.72-10.02,46.27-16.9,48.4l-174.61.53,36.39-215.68c2.29-2.85,37.74-5.56,41.66-3.1Z"/>
  <path class="cls-8" d="M1624.94,1569.61c-1.51,1.38-.93,8.9-4.57,3.43,4.86-13.68,8.82-27.82,9.98-42.39,6.35-79.82,6.09-218.09,0-298.09-1.48-19.41-7.38-38.76-13.18-57.16,15.77,10.56,28.11,28.18,29.59,47.29-8.5,98.52,10.8,214.73-.16,311.11-2.13,18.71-9.05,24.28-21.66,35.8Z"/>
  <path class="cls-5" d="M1399.21,1045.51c-8.19,7.94-49.42,70.25-53.81,70.95-1.65.26-11.21-2.05-11.85-4.23-1.04-3.54-.72-46.84.28-51.91,1.37-6.98,12.12-14.8,17.93-14.8h47.46Z"/>
  <path class="cls-7" d="M472.22,337.27l243.23-.74c7.78.49,14.63,20.3,14.08,27.03-1.29,15.79-13.27,20.55-27.22,22.11-66.91,7.48-147.35-5.33-215.73-.3-30.46-4.3-30.34-26.8-14.36-48.11Z"/>
  <path class="cls-7" d="M920.74,1001.79c9.64-9.71,25.01-2.71,31.97,7.39,9.2,13.35,7.38,22.43,22.87,36.05,20.68,18.19,41.15,22.21,66.76,11.06,11.89-5.17,48.27-43.19,57.1-17.1,15.33,45.27-47.87,70.1-82.92,70.13-43.66.04-102.07-40.73-102.02-87.64,0-4.27,3.68-17.32,6.24-19.89Z"/>
  <path class="cls-7" d="M1144.85,913.34c49.1-14.58,53.87,68.49,6.11,61.34-29.5-4.41-31.31-53.86-6.11-61.34Z"/>
  <path class="cls-7" d="M932.12,867.8c23.86,19.16-2.07,78.93-38.26,52.94-30.04-21.58,7.67-77.51,38.26-52.94Z"/>
  <path class="cls-7" d="M1298.74,1527.07c-20.02,19.88-35.95-1.9-38.38-23.62-5.87-52.61-5.2-179.1.06-232.36.57-5.8,2.83-19.21,6.23-23.23,9.21-10.91,40.46-8.86,39.7,9.93-6.79,79,8.54,171.67-.06,248.98-.6,5.4-3.94,16.7-7.55,20.28Z"/>
  <path class="cls-7" d="M1410.16,1247.27c3.61,3.6,3.76,12.02,4.18,17.09,6.52,77.5-5.19,163.94-.06,242.42-3.64,31.34-41.46,35.9-45.89-3.35-5.87-51.99-5.47-183.22,0-235.65,2.45-23.44,27.48-34.76,41.76-20.51Z"/>
  <path class="cls-7" d="M1487.46,1529.97c-1.23-.58-8.16-7.5-8-10.05l.16-258.75c-2.51-23.68,38.5-27.05,42.53-6.42-.07,80.76.45,161.52-.1,242.29-.1,15.25,8.31,24.31-12.22,33.41-7.73,3.43-14.89,3.01-22.36-.48Z"/>
  <path class="cls-7" d="M398.79,579.43c51.65-7.15,68.15,77.34,11.91,84.18-57.34,6.98-63.8-77-11.91-84.18Z"/>
</svg>